<?xml version="1.0"?>
<svg xmlns="http://www.w3.org/2000/svg" class="icon--sprite">
  <defs>
    <symbol viewBox="0 0 24 24" stroke-linecap="round" stroke-linejoin="round" id="icon--gtt-map">
      <path d="M3 7l6 -3l6 3l6 -3v13l-6 3l-6 -3l-6 3v-13"/>
      <path d="M9 4v13"/>
      <path d="M15 7v13"/>
    </symbol>
    <!-- Tabler "map-cog": the admin "Map settings" entry -->
    <symbol viewBox="0 0 24 24" stroke-linecap="round" stroke-linejoin="round" id="icon--gtt-map-settings">
      <path d="M12 18.5l-3 -1.5l-6 3v-13l6 -3l6 3l6 -3v8"/>
      <path d="M9 4v13"/>
      <path d="M15 7v6.5"/>
      <path d="M17.001 19a2 2 0 1 0 4 0a2 2 0 1 0 -4 0"/>
      <path d="M19.001 15.5v1.5"/>
      <path d="M19.001 21v1.5"/>
      <path d="M22.032 17.25l-1.299 .75"/>
      <path d="M17.27 20l-1.3 .75"/>
      <path d="M15.97 17.25l1.3 .75"/>
      <path d="M20.733 20l1.3 .75"/>
    </symbol>
  </defs>
</svg>
