<?xml version="1.0" encoding="UTF-8" standalone="no"?>
<svg
   xmlns:dc="http://purl.org/dc/elements/1.1/"
   xmlns:cc="http://creativecommons.org/ns#"
   xmlns:rdf="http://www.w3.org/1999/02/22-rdf-syntax-ns#"
   xmlns:svg="http://www.w3.org/2000/svg"
   xmlns="http://www.w3.org/2000/svg"
   version="1.1"
   id="svg5253"
   viewBox="0 0 14 14"
   height="3.9511111mm"
   width="3.9511111mm">
  <defs
     id="defs5255" />
  <metadata
     id="metadata5258">
    <rdf:RDF>
      <cc:Work
         rdf:about="">
        <dc:format>image/svg+xml</dc:format>
        <dc:type
           rdf:resource="http://purl.org/dc/dcmitype/StillImage" />
        <dc:title></dc:title>
      </cc:Work>
    </rdf:RDF>
  </metadata>
  <g
     transform="translate(-124.45311,-385.00072)"
     id="layer1">
    <g
       id="icon-line"
       transform="translate(81.453111,382.00072)">
      <path
         d="m 54.558,3 c -1.348,0 -2.442,1.093 -2.442,2.442 0,0.246 0.045,0.478 0.112,0.702 l -6.084,6.084 C 45.92,12.161 45.688,12.116 45.442,12.116 44.093,12.116 43,13.21 43,14.558 43,15.907 44.093,17 45.442,17 c 1.348,0 2.442,-1.093 2.442,-2.442 0,-0.246 -0.045,-0.478 -0.112,-0.702 L 53.856,7.772 C 54.08,7.839 54.312,7.884 54.558,7.884 55.907,7.884 57,6.79 57,5.442 57,4.093 55.907,3 54.558,3 Z m 0,1.465 c 0.54,0 0.977,0.437 0.977,0.977 0,0.539 -0.437,0.977 -0.977,0.977 -0.539,0 -0.977,-0.438 -0.977,-0.977 0,-0.54 0.438,-0.977 0.977,-0.977 z m -9.116,9.116 c 0.539,0 0.977,0.438 0.977,0.977 0,0.54 -0.438,0.977 -0.977,0.977 -0.54,0 -0.977,-0.437 -0.977,-0.977 0,-0.539 0.437,-0.977 0.977,-0.977 z"
         id="icon-line-shape"
         style="fill:#000000" />
    </g>
  </g>
</svg>
