<?xml version="1.0" encoding="UTF-8" standalone="no"?>
<svg
   xmlns:dc="http://purl.org/dc/elements/1.1/"
   xmlns:cc="http://creativecommons.org/ns#"
   xmlns:rdf="http://www.w3.org/1999/02/22-rdf-syntax-ns#"
   xmlns:svg="http://www.w3.org/2000/svg"
   xmlns="http://www.w3.org/2000/svg"
   version="1.1"
   id="svg5253"
   viewBox="0 0 14 14"
   height="3.9511111mm"
   width="3.9511111mm">
  <defs
     id="defs5255" />
  <metadata
     id="metadata5258">
    <rdf:RDF>
      <cc:Work
         rdf:about="">
        <dc:format>image/svg+xml</dc:format>
        <dc:type
           rdf:resource="http://purl.org/dc/dcmitype/StillImage" />
        <dc:title></dc:title>
      </cc:Work>
    </rdf:RDF>
  </metadata>
  <g
     transform="translate(-123.97003,-384.86086)"
     id="layer1">
    <g
       id="icon-area"
       transform="translate(60.970031,381.86086)">
      <path
         d="m 66.5,6.5 7,0 0,7 -7,0 0,-7 z"
         id="icon-area-fill"
         style="fill:#000000;fill-opacity:0.253" />
      <path
         d="M 65.5,3 C 64.119,3 63,4.119 63,5.5 c 0,0.958 0.543,1.788 1.333,2.208 l 0,4.584 C 63.543,12.712 63,13.542 63,14.5 c 0,1.381 1.119,2.5 2.5,2.5 0.958,0 1.788,-0.543 2.208,-1.333 l 4.584,0 c 0.42,0.79 1.25,1.333 2.208,1.333 1.381,0 2.5,-1.119 2.5,-2.5 0,-0.958 -0.543,-1.788 -1.333,-2.208 l 0,-4.584 C 76.457,7.288 77,6.458 77,5.5 77,4.119 75.881,3 74.5,3 73.531,3 72.696,3.558 72.281,4.365 l -0.062,-0.032 -4.511,0 C 67.288,3.543 66.458,3 65.5,3 Z m 0,1.5 c 0.552,0 1,0.448 1,1 0,0.552 -0.448,1 -1,1 -0.552,0 -1,-0.448 -1,-1 0,-0.552 0.448,-1 1,-1 z m 9,0 c 0.552,0 1,0.448 1,1 0,0.552 -0.448,1 -1,1 -0.552,0 -1,-0.448 -1,-1 0,-0.552 0.448,-1 1,-1 z m -6.792,2.167 4.584,0 c 0.234,0.441 0.6,0.807 1.041,1.041 l 0,4.584 c -0.441,0.234 -0.807,0.6 -1.041,1.041 l -4.584,0 c -0.234,-0.441 -0.6,-0.807 -1.041,-1.041 l 0,-4.584 c 0.441,-0.234 0.807,-0.6 1.041,-1.041 z M 65.5,13.5 c 0.552,0 1,0.448 1,1 0,0.552 -0.448,1 -1,1 -0.552,0 -1,-0.448 -1,-1 0,-0.552 0.448,-1 1,-1 z m 9,0 c 0.552,0 1,0.448 1,1 0,0.552 -0.448,1 -1,1 -0.552,0 -1,-0.448 -1,-1 0,-0.552 0.448,-1 1,-1 z"
         id="icon-area-shape"
         style="fill:#000000" />
    </g>
  </g>
</svg>
